<mxfile host="65bd71144e">
    <diagram name="Page-1" id="c9db0220-8083-56f3-ca83-edcdcd058819">
        <mxGraphModel dx="1373" dy="2224.5" grid="1" gridSize="10" guides="1" tooltips="1" connect="1" arrows="1" fold="1" page="1" pageScale="1.5" pageWidth="826" pageHeight="1169" background="#ffffff" math="0" shadow="0">
            <root>
                <mxCell id="0" style=";html=1;"/>
                <mxCell id="1" style=";html=1;" parent="0"/>
                <mxCell id="ZdKDWVDCSNFof4G56TFV-1" value="" style="rounded=0;whiteSpace=wrap;html=1;" parent="1" vertex="1">
                    <mxGeometry x="40" y="-1710" width="1160" height="970" as="geometry"/>
                </mxCell>
                <mxCell id="ZdKDWVDCSNFof4G56TFV-53" value="" style="group" parent="1" vertex="1" connectable="0">
                    <mxGeometry x="120" y="-970" width="410" height="130" as="geometry"/>
                </mxCell>
                <mxCell id="ZdKDWVDCSNFof4G56TFV-26" value="" style="group" parent="ZdKDWVDCSNFof4G56TFV-53" vertex="1" connectable="0">
                    <mxGeometry width="410" height="130" as="geometry"/>
                </mxCell>
                <mxCell id="ZdKDWVDCSNFof4G56TFV-21" value="" style="group" parent="ZdKDWVDCSNFof4G56TFV-26" vertex="1" connectable="0">
                    <mxGeometry width="410" height="70" as="geometry"/>
                </mxCell>
                <mxCell id="ZdKDWVDCSNFof4G56TFV-22" value="UserEmailhere" style="html=1;shadow=0;dashed=0;shape=mxgraph.bootstrap.rrect;rSize=5;strokeColor=#dddddd;;align=left;spacingLeft=10;fontSize=16;whiteSpace=wrap;rounded=0;" parent="ZdKDWVDCSNFof4G56TFV-21" vertex="1">
                    <mxGeometry y="30" width="297.31501057082454" height="40" as="geometry"/>
                </mxCell>
                <mxCell id="ZdKDWVDCSNFof4G56TFV-23" value="Email" style="html=1;shadow=0;dashed=0;shape=mxgraph.bootstrap.rect;strokeColor=none;fillColor=none;fontColor=#999999;align=left;spacingLeft=5;whiteSpace=wrap;rounded=0;" parent="ZdKDWVDCSNFof4G56TFV-21" vertex="1">
                    <mxGeometry width="173.3615221987315" height="20" as="geometry"/>
                </mxCell>
                <mxCell id="ZdKDWVDCSNFof4G56TFV-24" value="Update" style="html=1;shadow=0;dashed=0;shape=mxgraph.bootstrap.rrect;rSize=5;fontSize=16;fillColor=#3D8BCD;strokeColor=none;fontColor=#ffffff;whiteSpace=wrap;" parent="ZdKDWVDCSNFof4G56TFV-21" vertex="1">
                    <mxGeometry x="305.9830866807611" y="30" width="104.01691331923891" height="40" as="geometry"/>
                </mxCell>
                <mxCell id="ZdKDWVDCSNFof4G56TFV-25" value="Confirm Email" style="html=1;shadow=0;dashed=0;shape=mxgraph.bootstrap.rrect;align=center;rSize=5;strokeColor=none;fillColor=light-dark(#00994D,#EC7671);fontColor=#ffffff;fontSize=16;whiteSpace=wrap;rounded=0;" parent="ZdKDWVDCSNFof4G56TFV-26" vertex="1">
                    <mxGeometry x="208.03382663847782" y="90" width="201.9661733615222" height="40" as="geometry"/>
                </mxCell>
                <mxCell id="ZdKDWVDCSNFof4G56TFV-36" value="Remove Email&amp;nbsp;" style="html=1;shadow=0;dashed=0;shape=mxgraph.bootstrap.rrect;align=center;rSize=5;strokeColor=none;fillColor=#DB524C;fontColor=#ffffff;fontSize=16;whiteSpace=wrap;rounded=0;" parent="ZdKDWVDCSNFof4G56TFV-53" vertex="1">
                    <mxGeometry y="90" width="190" height="40" as="geometry"/>
                </mxCell>
                <mxCell id="ZdKDWVDCSNFof4G56TFV-51" value="" style="group" parent="1" vertex="1" connectable="0">
                    <mxGeometry x="919" y="-890" width="200" height="50" as="geometry"/>
                </mxCell>
                <mxCell id="ZdKDWVDCSNFof4G56TFV-49" value="&amp;nbsp; &amp;nbsp; &amp;nbsp; &amp;nbsp;Delete Accouint" style="html=1;shadow=0;dashed=0;shape=mxgraph.bootstrap.rrect;align=center;rSize=5;strokeColor=none;fillColor=#DB524C;fontColor=#ffffff;fontSize=16;whiteSpace=wrap;rounded=0;" parent="ZdKDWVDCSNFof4G56TFV-51" vertex="1">
                    <mxGeometry width="200" height="50" as="geometry"/>
                </mxCell>
                <mxCell id="ZdKDWVDCSNFof4G56TFV-50" value="" style="shape=image;verticalLabelPosition=bottom;labelBackgroundColor=default;verticalAlign=top;aspect=fixed;imageAspect=0;image=data:image/png,iVBORw0KGgoAAAANSUhEUgAAAQAAAAEACAYAAABccqhmAAAAAXNSR0IArs4c6QAAFGxJREFUeF7tnVvIbVUVx8eggoyksnoIygsElYFFEZFSeoh8KDToIpSBni4QRRAoPXjBI14eQiGIIkjxCJ4Cu0BKPSjhsdCQKCrICgIvBT1UmhQZlIz2OK6t37l83x577TnWnHvN3wL5FMeal98Y87/HHGvutVW4IACBbglotzNn4hCAgCAABAEEOiaAAHTsfKYOAQSAGIBAxwQQgI6dz9QhgAAQAxDomAAC0LHzmToEEABiAAIdE0AAOnY+U4cAAkAMQKBjAghAx85n6hBAAIgBCHRMAAHo2PlMHQIIADEAgY4JIAAdO5+pQwABIAYg0DEBBKBj5zN1CCAAxAAEOiaAAHTsfKYOAQSAGIBAxwQQgC12vpmdLiLLf3wmpw3/nTmrR0XkMRHxv34d+auqy//O7Ju2CxNAAAoDzW7OzC4VkXNF5LwJFvs60zm80IFrXRAQg3Ww1bVFAOryD/U+LPpLhkUfuqeykYuB/3M7YlDZEyu6RwAa9o+ZXbMY3oGGhxgZ2n4XA4Qggmp6GwRgeuYrexw+8X3x+/5+DpfXB3x7gBA05k0EoCGHmJnv62+b0cI/lu6ROoGq+l+uBgggAA04wYcwk3Q/SvOAqnpGwFWZAAJQ2QHD4r9viwp8pYh5bYMiYSmaI9tBAEaCK3Hb8BzfU35P/Xu8fCuwnwJhPdcjAJXYD4vfP/nnUugbS9ILhPsQgbH4NrsPAdiM36i7WfzHYUMERkXS5jchAJszXLsFM+txz7+KE9uBVYQS/j8CkAB1rybNzPf8fpyX63gCPB2YOCoQgAmBd/aobyxZRGAsuRH3IQAjoI25ZTjk46k/12oCXhTksNBqThtbIAAbI4w1YGaPUPGPsRq+YsyTgTCu8YYIwHh24TtJ/cOodhqyFRiFbb2bEID1eI2yXgiAjbqx75t4NDiB/xGAZMh8+m8EmCxgI3yrb0YAVjMabTEc+PG9P9d4AmdwSnA8vFV3IgCrCG3w//n03wDe87f6dwUOFmmJRo4jgAAkBkWlE3++d854hLbz5aNTfn/BXyKyL9FNXTeNACS5f8L0f/K37QxnGlwEpnprEduApDhFAJLATpT+H1RVf+detWuio81sA5I8jAAkgZ1AAJo5LTfBq8yqC11SmFRvFgFIckHys/9mFv8S3wSCxzYgIVYRgASoyfv/Zj8Nk0UAAUiIVQQgAWriF3/8V3fOSBhysSYTv/PQXNZTDFrFhhCABPiJAtD8ybjELIBCYEKsIgAJUIcf9vAXf5S+mv8UTBQ/BKB0NPmPuia02X2TWZ+Ci3fpb4W/krYBzWc/2xj4WxFQ2wY2SQCa3//veCKQ8e6DZouf2xafO8eLACR4L+lwzNYsgN7nnxBSaU0iAAloe18Avc8/IaTSmkQAEtD2vgB6n39CSKU1iQAkoO19AfQ+/4SQSmsSAUhA2/sC6H3+CSGV1iQCkIC29wXQ+/wTQiqtSQQgAW3vC6D3+SeEVFqTCEAC2t4XQO/zTwiptCYRgAS0vS+A3uefEFJpTSIACWh7XwC9zz8hpNKaRAAS0Pa+AHqff0JIpTXZrACY2VkicpGI+Bth3yQir0ijQMMQKE/gSRH5nYj4D8Leqaq/Kd/F5i02JwBmdqqI3CgiF28+PVqAQDMEDonIFar6eDMjau3rwGZ2gYjczqd9SyHCWAoS8KzgElW9u2CbGzXVTAYwLP67NpoNN0NgOwhc2IoINCEAQ9r/Kz75tyN6GeXGBDwTeGsL24FWBOAO9vwbBxUNbBeBQ6r6idpDri4AQ7X/17VB0D8EKhB4S+2nAy0IwPUicmUF+HQJgdoEblDVq2oOogUBeEBEzq4Jgb4hUInAg6p6TqW+j3TbggA8QfGvZgjQd0UCT6rqKRX7b0IArCYA+oZATQK1X/XeQgbwbxE5qaYT6BsClQg8raovqdR3M1uA3y7OSp9ZEwJ9Q6ASgYdV9c2V+m5GAG4RkU/VhEDfEKhE4FZV/XSlvpsRAD//zxHgmlFA37UIVD8SXL0G4OQX3wP4xUIE3lbLC/QLgQoEfrn4PsDbK/R7VJetCABZQO1IoP+pCVT/9PcJNyEAQxbAicCpQ5D+ahGofgJwOfFmBGAQgZtE5LJaXqFfCExA4GZVvXyCfkJdNCUAgwh4VfTLnA4M+Q+j7SHgXwH+kqr6U69mruYEYBCBl4nIF0TkY5wRaCZWGMg4Ag+LyLdF5Kuq+tS4JvLualIAdk53eFnIG0TERaH58a7hquUBkFevcc9cTf0w2F9nNDk/3u6L/Q8tvPRjL65zWlAzih+mAoFpCCAA03CmFwg0SQABaNItDAoC0xBAAKbhTC8QaJIAAtCkWxgUBKYhgABMw5leINAkAQSgSbcwKAhMQwABmIYzvUCgSQIIQJNuYVAQmIYAAjANZ3qBQJMEuhMAM7t08Zvt54rIeSJy+uCVR0XE/7nW/6qq/zvXDAng/6Od2o0ADI6/Zsei3y28l0JwGCGYjwLg/xP7sgsBMLP7hk/8dSL6sIjsRwTWQdamLf7f3S+zF4CRzl8S82xgHyLQ5sKOjAr/701p1gKwofOX5A4sfr3FawNcW0YA/6922GwFwMy8yOepf4nrDLKAEhinawP/x1jPWQAeCRT8YpREvCC4L2qMXX0CZob/A26YpQCYmT/e8wAoeZEFlKSZ2Bb+j8OdqwD4474DcQwhS38icDBkiVFVAmaG/4MeQACCoBbbiYOquj9ujmUtAkkCMEv/z1UAbluc6PMTfyWvWQZASUCttGVm+D/oDAQgCIoMIA6qtiUCEPcAAhBnRQYQZ1XVEgGI40cA4qwQgDirqpYIQBw/AhBnhQDEWVW1RADi+BGAOCsEIM6qqiUCEMePAMRZIQBxVlUtEYA4fgQgzgoBiLOqaokAxPEjAHFWCECcVVVLBCCOHwGIs0IA4qyqWiIAcfwIQJwVAhBnVdUSAYjjRwDirCYXADN7+/AC0zeKyMtF5D/Dy0sfUtUfxoeeb2lmHxCRdw5fwX6xiPxDRH6/eKPS/ar6i/wRPN8DAhCnjQDEWU0mAGb28cUC+qKIvGOP4f1dRL4uItep6n/j0yhnaWYvEpGrReRzIvLKPVr++ULAvqKq3yrX++4tIQBxyghAnFW6AJjZySJyq4h8ND4s+aOIfFZVf7zGPRubmtl7ReQbIvL6NRr7joh8UlX/tcY9a5siAHFkCECcVaoAmNmrRORHKz719xrth1X1+/HpjLc0sw+JyPdGtuDZwPtV9W8j7195GwKwEtFzBghAnFW2ANwjIu+LD+c4y2d8D5693x7qEg8tth4v2GCs96rq+Rvcv+etCECcLAIQZ5UmAGZ2hYjcEB/KrpY/VdX3FGhn1ybM7Cci8u4CfVypqjcWaOe4JhCAOFUEIM4qRQDM7KUi8hcR8b8lrouzim1DcfJQiUGKiNcBXpNRD0AA4h5CAOKssgTAK+hfiw9jpWVaem1mm25Tjh3851XVn2QUvRCAOE4EIM4qSwDuEpEL4sMIWZ5c+pN1yFT+Geo9bnS3ql4YN49ZIgAxTm6FAMRZZQnAn0TktfFhhCzPWRTZHgxZBo0Wn/5nL4qUDwTNo2Z/VtXXRY2jdghAlBQCECeV9FZgM/vfhhX1E82h+CPBDR/97cb5GVV94TpOiNgiABFKz9qQAcRZZWUAFh9C2PIiVfVDN8UuM/PDSXcWa3BoaPG7i8VjEAGIe6k4/HjXeZbbFACLd9gjAIVDYZv8X3jqazeHAMSRkQGQAczuh2EQAAQgRIAtwDx/GQoBCIX/ESMyADIAMoD4eqlnuU17QGoAFAHrrRSeAqzDngyADIAMYJ0VU8uWDEB4DMiPw4aWHzWAECZqABQBc2pA8fDLsUQA4lzZArAFYAsQXy/1LNkCsAVYvDz10sIRmPIBUHiMazdHBhBHlhIAPAXgKUA8BMtbIgBxpggAWwC2APH1Us+SLQBbALYAsfVHBhDjxElAvg2YkgHGwy/HEgGIc00JAGoA1ADiIVjeEgGIM0UAqAFQA4ivl3qW1ACoAVADiK0/MoAYJ2oA1ABSMsB4+OVYIgBxrikBQA2AGkA8BMtbIgBxpggANQBqAPH1Us+SGgA1AGoAsfVHBhDjRA2AGkBKBhgPvxxLBCDONSUAqAFQA4iHYHlLBCDOFAGgBkANIL5e6llSA6AGQA0gtv7IAGKcqAFQA0jJAOPhl2OJAMS5pgQANQBqAPEQLG+JAMSZIgDUAKgBxNdLPUtqANQAqAHE1h8ZQIwTNQBqACkZYDz8ciwRgDjXlACgBkANIB6C5S0RgDhTBIAaADWA+HqpZ0kNgBoANYDY+iMDiHGiBkANICUDjIdfjiUCEOeaEgDUAKgBxEOwvCUCEGeKAFADoAYQXy/1LKkBUAOgBhBbf2QAMU7UAKgBpGSA8fDLsUQA4lxTAoAaADWAeAiWt0QA4kwRAGoA1ADi66WeJTUAagDUAGLrjwwgxokaADWAlAwwHn45lghAnGtKAFADoAYQD8HylghAnCkCQA2AGkB8vdSzpAZADYAaQGz9kQHEOFEDoAaQkgHGwy/HEgGIc00JAGoA1ADiIVjeEgGIM0UAqAFQA4ivl3qW1ACoAVADiK0/MoAYJ2oA1ABSMsB4+OVYIgBxrikBQA2AGkA8BMtbIgBxpggANQBqAPH1Us+SGoB8VFW/W9IDZvYREflOyTa9LVUygNJM12mPDCBOKysDeEJEXhEfRsjyfFW9N2QZNDKz94nIPUHzqNmTqnpK1Dhqt00fANE5ZdkhAHGyWQLwwGJhnR0fRsjyNFV9PGQZNDKzU0XksaB51OzBhVCdEzWO2iEAUVIiCECcVZYAXC8iV8aHsdLyYVV980qrEQZm9lsROXPErbvdcoOqXlWwvSNNIQBxoghAnFWWAJwlIr+OD2Ol5dWq6qJS/DIzX6zXFWz4Lar6m4LtIQBrwkQA4sBSBGD4xLpDRC6OD2VXyydF5AxVfapAW8c1YWYvE5FHCtUsDqnqJ5LGeRsHgWJkEYAYJ7fKFADfX/+qwML6jKreEp/S+pZm9mkR+eb6dx51hwvVW0vXKZY9sAWIewcBiLNKE4AhC7hARO6KD+c4y5tV9fIN7g/famY3ichl4RuON7xQVe/e4P49b0UA4mQRgDirVAHYIQK3j8gEUoppe6ExszHFS//kvyRz8Q8c2QIE4xoBCILK3ALsHMLwuO3GYE3gl4t7D2QvqN0QmZlnLQcWmcvbAhgPicgVWWn/MQwRgIBD3AQBCIKaSgB27GP96cBFIrJPRN40ZAVPD0W4n4nID2ot/GORDULwQRF5lxchReQkEfFP+9+JyH2LR4d3ZlT79xAmBCAY1whAEJSIHFZVX4xcjRMwMxed8woPM30LWHi8oeYQgBCmI0YIQJxVVcskAfCt1rVVJ5bQ+VwF4FIR8TSw5PWoqnp6y9U4ATPzswqnFx4mAlAYaFpzZpYhACnfXEuD0HHDSe9Y2K+qB+eGda4ZgO//fB9Y+vJTdo+WbpT2yhEwM//k9wyg9LVPVQ+XbrR2ewjAeh6Y5afAegjatl58+l+zGKE/mix9zVL8ZykA7vmkNJBCYOllVbi9pALgbLd/CMD6ATjLT4L1MbR3R2L6jwC05+69R5RUCfZOZ1kN3jb/nmi8ien/bJ8AzTkDyDgN5nHnRUAvCFEMbEw1krZ9sxb9OQtAyqPAIebJAtpb/FnFP5/pLJ8A+MRmKwBDITDjQMgy9KkFNCICmXv/I4sk4c3FjaCbvQBkbQPcf34o5Fq2AvVDOavyP8xs1k9+5p4BZG4DZr03rL+sYyNIevnHzs5nvd2buwBknQrrJkBiy7COVdaR752zmXP6P/sawAR1gGWscEJwYg2YYvH7E5+5fwFs1hnAIACZ1eGjMoHFyzBupyaQrwTJe/6usrvZC8CEWYB35V8W8WyAMwJJOjDh4p/9p38XW4CJs4DntgTDC0QQgkJCkHjKb7cRzrr4t5x0FxnAxFnAkq0vfn+DjD9GQghGCsGw1/dtXOkXfOw1oi4+/bvJAAYByH4kuFdA+dbAX/eNGASEYFj0lyS81y/Q+xGTboq63WQAlbKA3QLOM4JlVkB28PwLPKf8lN/VN3Ov/B/1mDMqiXOwM7OsNwXNAQ9zeJbAbM/9n8jBXWUAQxaQeTyYRbTdBGZ97BcBGAgkvitgu8O/79F3U/jrdguwnPjw7TF/aWgLe86+l10bs+/2HQ/dbQF2iIA/FZj68VIb4c4ojiXQ1b6/+wxghwhMdUyYJdcugW4e+VEDOAGBCifM2l0K/Y1slr/3t44bu90C7IQ04fnydXyDbS6B7ir+ZAB7BBQikLvaGmudxT84hAxgR2SyHWhsmeYMp4sv+UTRIQDHkBpEwJ8Q8IgwGkXbY9dttX83FyEAJy4M+pFhPzGICGzP4l41Uhb/CQghALuEDYeFVq2nrfn/fsjHH/XN7pd9S3gAAVhBcYK3zpbwI22cmED3j/lWBQYCsIrQs7807FsCPzTkf7naJ+Cf9v6bDXzqr/AVArBGMA9CQG1gDWYTm5LurwkcAVgTmJtXek3ViJF2dUvXR3rHehoBGEsOIdiAXLFb/efZ/Gu8/u5FrhEEEIAR0I69Zdga+CNDf4+d/+XxYQGuuzThi/5+3q9YBjACUIbjUa0MgrB8qSVisBlj39d7Me9+VfXFz1WQAAJQEOZuTQ1nCpZC4H9PG2wRh2dB+CJ/bGDy3AtTeZ16fnAiAPmM6QECzRJAAJp1DQODQD4BBCCfMT1AoFkCCECzrmFgEMgngADkM6YHCDRLAAFo1jUMDAL5BBCAfMb0AIFmCSAAzbqGgUEgnwACkM+YHiDQLAEEoFnXMDAI5BNAAPIZ0wMEmiWAADTrGgYGgXwCCEA+Y3qAQLMEEIBmXcPAIJBPAAHIZ0wPEGiWAALQrGsYGATyCSAA+YzpAQLNEkAAmnUNA4NAPgEEIJ8xPUCgWQIIQLOuYWAQyCeAAOQzpgcINEvg/+xjwIgUap3KAAAAAElFTkSuQmCC;" parent="ZdKDWVDCSNFof4G56TFV-51" vertex="1">
                    <mxGeometry x="20" y="11.25" width="27.5" height="27.5" as="geometry"/>
                </mxCell>
                <mxCell id="ZdKDWVDCSNFof4G56TFV-55" value="About Me....." style="html=1;shadow=0;dashed=0;shape=mxgraph.bootstrap.rrect;rSize=5;strokeColor=#dddddd;;align=left;spacingLeft=10;fontSize=16;whiteSpace=wrap;rounded=0;verticalAlign=top;" parent="1" vertex="1">
                    <mxGeometry x="640" y="-1235" width="479" height="70" as="geometry"/>
                </mxCell>
                <mxCell id="ZdKDWVDCSNFof4G56TFV-56" value="About Me" style="html=1;shadow=0;dashed=0;shape=mxgraph.bootstrap.rect;strokeColor=none;fillColor=none;fontColor=#999999;align=left;spacingLeft=5;whiteSpace=wrap;rounded=0;" parent="1" vertex="1">
                    <mxGeometry x="640" y="-1265" width="200" height="20" as="geometry"/>
                </mxCell>
                <mxCell id="ZdKDWVDCSNFof4G56TFV-57" value="Update" style="html=1;shadow=0;dashed=0;shape=mxgraph.bootstrap.rrect;rSize=5;fontSize=16;fillColor=#3D8BCD;strokeColor=none;fontColor=#ffffff;whiteSpace=wrap;" parent="1" vertex="1">
                    <mxGeometry x="999" y="-1145" width="120" height="40" as="geometry"/>
                </mxCell>
                <mxCell id="ZdKDWVDCSNFof4G56TFV-58" value="" style="group;fillColor=none;fillStyle=hatch;strokeColor=none;dashed=1;" parent="1" vertex="1" connectable="0">
                    <mxGeometry x="700" y="-890" width="200" height="50" as="geometry"/>
                </mxCell>
                <mxCell id="ZdKDWVDCSNFof4G56TFV-59" value="Deactivate Accouint" style="html=1;shadow=0;dashed=0;shape=mxgraph.bootstrap.rrect;align=center;rSize=5;strokeColor=none;fillColor=#DB524C;fontColor=#ffffff;fontSize=16;whiteSpace=wrap;rounded=0;" parent="ZdKDWVDCSNFof4G56TFV-58" vertex="1">
                    <mxGeometry width="200" height="50" as="geometry"/>
                </mxCell>
                <mxCell id="ZdKDWVDCSNFof4G56TFV-19" value="" style="group" parent="1" vertex="1" connectable="0">
                    <mxGeometry x="120" y="-1585" width="416" height="250" as="geometry"/>
                </mxCell>
                <mxCell id="ZdKDWVDCSNFof4G56TFV-8" value="Upload Image" style="html=1;shadow=0;dashed=0;shape=mxgraph.bootstrap.rrect;rSize=5;fontSize=16;fillColor=#3D8BCD;strokeColor=none;fontColor=#ffffff;whiteSpace=wrap;" parent="ZdKDWVDCSNFof4G56TFV-19" vertex="1">
                    <mxGeometry x="246" y="180" width="170" height="40" as="geometry"/>
                </mxCell>
                <mxCell id="ZdKDWVDCSNFof4G56TFV-3" value="320x320&#xa;Profile Image" style="shape=rect;fontSize=24;fillColor=#f0f0f0;strokeColor=none;fontColor=#999999;whiteSpace=wrap;rounded=1;" parent="ZdKDWVDCSNFof4G56TFV-19" vertex="1">
                    <mxGeometry width="216" height="220" as="geometry"/>
                </mxCell>
                <mxCell id="ZdKDWVDCSNFof4G56TFV-12" value="Uploaded File Name here.png&amp;nbsp; |&amp;nbsp; 400kb" style="html=1;shadow=0;dashed=0;shape=mxgraph.bootstrap.rect;strokeColor=none;fillColor=none;fontColor=#999999;align=left;spacingLeft=5;whiteSpace=wrap;rounded=0;" parent="ZdKDWVDCSNFof4G56TFV-19" vertex="1">
                    <mxGeometry y="230" width="406" height="20" as="geometry"/>
                </mxCell>
                <mxCell id="ZdKDWVDCSNFof4G56TFV-17" value="" style="group" parent="ZdKDWVDCSNFof4G56TFV-19" vertex="1" connectable="0">
                    <mxGeometry x="246" width="170" height="170" as="geometry"/>
                </mxCell>
                <mxCell id="ZdKDWVDCSNFof4G56TFV-9" value="" style="rounded=1;whiteSpace=wrap;html=1;dashed=1;dashPattern=8 8;" parent="ZdKDWVDCSNFof4G56TFV-17" vertex="1">
                    <mxGeometry width="170" height="170" as="geometry"/>
                </mxCell>
                <mxCell id="ZdKDWVDCSNFof4G56TFV-10" value="" style="shape=image;verticalLabelPosition=bottom;labelBackgroundColor=default;verticalAlign=top;aspect=fixed;imageAspect=0;image=data:image/png,iVBORw0KGgoAAAANSUhEUgAAAQAAAAEACAYAAABccqhmAAAAAXNSR0IArs4c6QAAD9xJREFUeF7tnQ3S3DQMhsNJgJMUTlI4CfQk0JMAJymcBD4Na5ou2fhP/pH0ZOabDqzXsV7JT2TFyX51cKAACoRV4KuwlmM4CqDAAQAIAhQIrAAACOx8TEcBAEAMoEBgBQBAYOdjOgoAAGIABQIrAAACOx/TUQAAEAMoEFgBABDY+ZiOAgCAGECBwAoAgMDOx3QUAADEAAoEVgAABHY+pqMAACAGUCCwAgAgsPMxHQUAADGAAoEVAACBnY/pKAAAiAEUCKwAAAjsfExHAQBADKBAYAUAQGDnYzoKAABiAAUCKwAAAjsf01EAABADKBBYAQAQ2PmYjgIAgBhAgcAKAIDAzsd0FAAAxAAKBFYAAAR2PqajAAAgBlAgsAIAILDzMR0FAAAxgAKBFQAAgZ2P6SgAAIgBFAisAAAI7HxMRwEAQAygQGAFAEBg52M6CgAAYgAFAisAAAI7H9NRAAAQAygQWAEAENj5mI4CAIAYQIHACgCAwM7HdBQAAMQACgRWAADEcf43x3G8P45D/pXjj+M4/jyO4/c4EmDpswIAwH9MfHccxy+nif9ssQDgxwcM/KuBhV8oAAB8B4RM/B8KTJRM4MMbJH4taEsTRwoAAEfOfDKldPKnrwkEJBNgSeA3Jv5nGQDw6WxJ+39rME0g8D3LgQbljH4FABh13M2wpcj3qcMsyQAEAhwBFAAA/pwsV37JAHqOnx81gZ4++K4BBQCAASdVDFFj8qfTST2AomCF+BabAgCLXrse809v/1uu3FoH9QAtJTfuBwBs7JyKobUW/XKnEAh8m2vE53YVAAB2fZdG3lv0yykgywBZDnA4VAAA2Heq5rr/lRoUBe3HyaUFAMC2Y2dMflGITUK24+Tl6AGAXceOWve/UoSioN1YAQDOfDd78if52CTkLJDIAGw6VHb6pcd6Z1tAPWC24gPPBwAGijuo61nr/rvhs0lokHNndwsAZivedz7tzT6to6Ee0KrcZt8DAJs55GY4q9b9d0VBNgnZiR9uAxr21ejNPq3SsEmoVblNvkcGsIkjMsPYYd3/aogUBW3EEBmAUT/tPPlFUjYJGQ0sGTYZwN7O223df1cP4E1Ce8cSGYAx/1iZ/ElWnhw0FmBkAHs7bOVmn1ZlqAe0KrfoeywBFglvuOiXU4xNQjmFNvocAGzkjMdQdtns06oMRcFW5RZ8DwAsEP3mlNbW/XdFQTYJ7RVbFAE398eum31aZWOTUKtyE79HBjBRbMfr/lemURTcJ77IADb2xe6bfVqlox7Qqtyk75EBTBL65jTy453yO35ah0y6Ve8KuLKBJwe1PDugHwAwQNSKLkcU/STt7vl9AHnrj/z19PEsAZuEKoJiZlMAMFPtL88lV2lJ/TWv1uk3/Vp+GDSNLr32S3tZQlFwXay9PDMAWOcU7QmWCm69WUUCwAhAURRcF28UATfSXnuzz/llnVoAELm0b01SFNwoCGUoZADzHdI7QXPr697+n9/8O6JIySah+XFHBrCB5tpXVDFJ1v0yadOhDQDpVztjoR6wQTCSAcx3gva6/3nyi0UjACDgkluV0rfWQT1AS8mOflgCdIhX+VXtyf/qRzpGACDVAzTvWlAPqAygEc0BwAhV/9+ndgp99ws9owCgkV1c1S94k9CcGKQGsEjn3gl5Neyr1H9kDeA8Bm2YsUloUWBSAxgv/Iyi37MVvcAp+f0/qQfI3QGtg6KglpKV/bAEqBSssrn2ur+kcDYDAGwSqgyEXZsDgHGe0U6VS67MGuv00vNoZzcUBcfF4sueAcAY0XuvwlfFstLNM73nLgWAjJFNQmPiZ1qvAEBfau0ro4zwrui3ogYwsihYAyB97wXrEQDoO1x73V8z+WcuAZJybBLSj6FpPQIAXam1J3/L1XDmEuAMATYJ6cbSlN4AgJ7Mq4p+q5cA6fy94Lmqe7BJSC8+L3sCADoCawe/jEqKflIZrz16x9KSdaQxakOQTUK13q9sDwAqBbtovrrot0sGkMbBJqH+mJrWAwDol1p73V+y2edu1CszABkXm4T6Y2paDwCgT2rtq11P+q21FtcYg3ZWxCahvjh9+W0A0C5s75X2quhVutln5wwgjW3EJiGKgu3xShFQUTvtK5wMrfZ+/ytzesGkkQGMKgpqjk0xHOx2RQbQ5jvtdb/W5BdrdgIAm4Ta4mvatwBAvdTat7q0H4XdCQAjioL80lB9zFIDUNTsb8W+RqS0uwEgQeCTom7a0FQcmq2uyADq/KVd2Grd7GOhCPg8Rk3t2CBUF7dkAEp6ad7201z3n83bMQNI47Ogn1Ko2OiGDKDOT1oB3LvZx2IGkJYCWq8XHwXQuogw3hoA1DlQo/o/Yt1vJQPQrAcAgLrYvWwNAOpE7L0DMGPtuvMSIKmtUQ8YUT+piwYHrQFAnRN7NwDNuGpZAICo3gNT7gLUxS1FQCW9pJvWZcCMyS/jswKAnk1Cs7RUDJs9uyIDqPdLy9NuI4t+zxZYAUCqB9S+SYirf33MkgEoalZbyJo5+S1lAMklNZnA6AKqcpjs3x0ZQLuPJHDfv31dJvjVseoRVksZwBkCOS3lyv+h3V1880oBANAfFwICmXRfP16GIRP/Y+PrvPpHY6cGcGVr0vLdSb+/3nSVyc8xQAEAMEDUxV1azAAWSxb39ADAn+8BgD+fDrMIAAyTdlnHAGCZ9PZODADs+Sw3YgCQU4jP/1MAAPgLBgDgz6fDLAIAw6Rd1jEAWCa9vRMDAHs+y40YAOQU4nOWAI5jAAA4dq62aWQA2oqu7w8ArPeBmREAADOuKh4oACiWioYAwF8MAAB/Ph1mEQAYJu2yjgHAMuntnRgA2PNZbsQAIKcQn3MXwHEMAADHztU2jQxAW9H1/QGA9T4wMwIAYMZVxQMFAMVS0RAA+IsBAODPp8MsAgDDpF3WMQBYJr29EwMAez7LjRgA5BTic+4COI4BAODYudqmkQFoK7q+PwCw3gdmRgAAzLiqeKAAoFgqGgIAfzEAAPz5dJhFAGCYtMs6BgDLpLd3YgBgz2e5EQOAnEJ8zl0AxzEAABw7V9s0MgBtRdf3BwDW+8DMCACAGVcVDxQAFEtFQwDgLwYAgD+fDrMIAAyTdlnHAGCZ9PZODADs+Sw3YgCQU4jPuQvgOAYAgGPnaptGBqCt6Pr+AMB6H5gZAQAw46rigQKAYqloCAD8xQAA8OfTYRYBgGHSLusYACyT3t6JAYA9n+VGDAByCvG5q7sA3xzH8f44Dgl8+fvz7d/fH/9+fPwbyeUAoM3botu7RwxJTMkhcfTHcRy/tnW5/7esZwA/vUn8843MAgNx3of9XaE2QgBQJ6VM9l8eE//VNyWOvvd4MbEMgN8yTjs7U0guDoxwAIByL9doJRCQC4mrbMAqAH54ULvc1f9mChEygZqgvtIvEixrLiKilbtMwCIAJGX7VDPzH23FeT8+1nUNXzfzFQBQ5qrc8vFVL64AaREArY4Th0bIAgBAGQDkIpKKfWXf+NzqWy/1AIsAkIKNLAFaDlf0fiEAACiLjL/Lml22knqSxJL5wyIAesgtywCht+cDAOS921JDOvfqJpO0CIAecosTLdqcD+nPLQBAXq1eAMidAKknmT8sTgYAcB92ACA/LQHAQyMAkA8Way0AQN5jAAAA5KPEaAsAkHccAAAA+Sgx2gIA5B0HAABAPkqMtgAAeccBAACQjxKjLQBA3nEAAADko8RoCwCQdxwAAAD5KDHaAgDkHQcAAEA+Soy2AAB5xwEAAJCPEqMtAEDecQDAMAB6ngUQs908yfUizlsfl07dudnmesOBnidKpVueBchDdliL2pc4PA/EzZNcNwr3aCR73F299eZCp54nSqU7NxpZ3ArcE9ziPABwz2bvGZJYDwAMLwFwXj65al0GRHhfgqjHRcQwAFi/5QEgLVoKXRYzwjI1vmxFHSkwAKJc5cTFpbCM8r7EhAEeKTcMgN7bXBHeCnS+3slyQFLeV++/i1D1P+vRkhk9ZxluMiWLhvQCIEoh8BkC8t/p128EgvKLNy7ea1e5Buhd/7u6gFgEQGuB6xwnkZYBlfPDffPe9N9VxmQRABpVXHc/8OB+2uoYWFoTuTubq9vIVgGgsQxwRXKd+eG+l96rvwhkdc5cOteqMRrLgGiVb/ezO2OgxtXf3UXDKgA0lgHShzuHRp/lN/ZrXP3dbAFOOlkGgAbRI94RiMiI3sp/0szdNmnLANBYBohjKQj6RoLWhcJltmgZAFrLgAQB7z8Z5nuaX1unUSxOPbtL/z1UNDUd7JLwEWf9w2atDFG6c7tvxHoGoJkFkAn4oYXmhcF1ncgDADRJT03APgQ09vqfVXB79fewBEiO6n1HwHPYS2FQlgQf7M+HUBZoFfzOorna+fccDR4yALFJOwtIOgn9pfgjQODYV4ERE9/12j+50gsAxB7tLCBplLKBj4BgOwLIWl/8/upR594Bu776e1oCpCzg7rn33mBI9QFZGkR9lFZDw94+ZLK/f+tE3sw78nDz5t87kTxlACOXAlcaSmZw/vtrZDQG7fvrh90y6eVPrvgzDteFv7OA3gAgtmlXgWcEHOfYRwFXL/zIyeoRAGLzqKJQTk8+t6+A+3W/9wwg2TeqKGg/xLHglQKhJr+I4DUDSPWA0UVBppIfBUIU/Z7d5RkACQKSCcwqHvmZDrEsCTn5vWcAKYRn3TaKNWX8WBsu7Y9SA3gOUQqDfiathiW8Es55DeAqSLhFqDF17PcR6lbfnbu81wCubM/9Uo798MaCOwXCbPIpCYOIAEjFwRnbSUt8QJs5CpDyX+gcFQAUCOdMuh3OwqPdN16IDoAzCLhduMN01R1D2Nt7pTICgC+VkiLhu8fzBKUa0m4vBbjiV/gDAFyLlZ48AwYVwbSwaZr0PKZd6QQAkBcsPYoqRUPZUTjq5RP5kdAiKZDe0CTvZuBFLR1xAQDaxEsQSHCQ59YBQ5uWd99KE13etXB+94L+mYL2CACCOh6zUUAUAADEAQoEVgAABHY+pqMAACAGUCCwAgAgsPMxHQUAADGAAoEVAACBnY/pKAAAiAEUCKwAAAjsfExHAQBADKBAYAUAQGDnYzoKAABiAAUCKwAAAjsf01EAABADKBBYAQAQ2PmYjgIAgBhAgcAKAIDAzsd0FAAAxAAKBFYAAAR2PqajAAAgBlAgsAIAILDzMR0FAAAxgAKBFQAAgZ2P6SgAAIgBFAisAAAI7HxMRwEAQAygQGAFAEBg52M6CgAAYgAFAisAAAI7H9NRAAAQAygQWAEAENj5mI4CAIAYQIHACgCAwM7HdBQAAMQACgRWAAAEdj6mowAAIAZQILACACCw8zEdBQAAMYACgRUAAIGdj+koAACIARQIrAAACOx8TEcBAEAMoEBgBQBAYOdjOgoAAGIABQIrAAACOx/TUeAfG8efHzjYaS0AAAAASUVORK5CYII=;" parent="ZdKDWVDCSNFof4G56TFV-17" vertex="1">
                    <mxGeometry x="50" y="40" width="70" height="70" as="geometry"/>
                </mxCell>
                <mxCell id="ZdKDWVDCSNFof4G56TFV-13" value="Drag And Drop&lt;br&gt;Your Image" style="text;html=1;align=center;verticalAlign=middle;whiteSpace=wrap;rounded=0;" parent="ZdKDWVDCSNFof4G56TFV-17" vertex="1">
                    <mxGeometry x="30" y="100" width="110" height="30" as="geometry"/>
                </mxCell>
                <mxCell id="ZdKDWVDCSNFof4G56TFV-20" value="" style="group" parent="1" vertex="1" connectable="0">
                    <mxGeometry x="640" y="-1585" width="473" height="70" as="geometry"/>
                </mxCell>
                <mxCell id="ZdKDWVDCSNFof4G56TFV-15" value="UserNamehere" style="html=1;shadow=0;dashed=0;shape=mxgraph.bootstrap.rrect;rSize=5;strokeColor=#dddddd;;align=left;spacingLeft=10;fontSize=16;whiteSpace=wrap;rounded=0;" parent="ZdKDWVDCSNFof4G56TFV-20" vertex="1">
                    <mxGeometry y="30" width="343" height="40" as="geometry"/>
                </mxCell>
                <mxCell id="ZdKDWVDCSNFof4G56TFV-16" value="Name" style="html=1;shadow=0;dashed=0;shape=mxgraph.bootstrap.rect;strokeColor=none;fillColor=none;fontColor=#999999;align=left;spacingLeft=5;whiteSpace=wrap;rounded=0;" parent="ZdKDWVDCSNFof4G56TFV-20" vertex="1">
                    <mxGeometry width="200" height="20" as="geometry"/>
                </mxCell>
                <mxCell id="ZdKDWVDCSNFof4G56TFV-18" value="Update" style="html=1;shadow=0;dashed=0;shape=mxgraph.bootstrap.rrect;rSize=5;fontSize=16;fillColor=#3D8BCD;strokeColor=none;fontColor=#ffffff;whiteSpace=wrap;" parent="ZdKDWVDCSNFof4G56TFV-20" vertex="1">
                    <mxGeometry x="353" y="30" width="120" height="40" as="geometry"/>
                </mxCell>
                <mxCell id="ZdKDWVDCSNFof4G56TFV-27" value="" style="shape=image;verticalLabelPosition=bottom;labelBackgroundColor=default;verticalAlign=top;aspect=fixed;imageAspect=0;image=data:image/png,iVBORw0KGgoAAAANSUhEUgAAAQAAAAEACAYAAABccqhmAAAAAXNSR0IArs4c6QAAIABJREFUeF7tnQncdlPVxq8GX5oHIkoipTJVMpQyNZE0GSKFlPSppBBpTpNMheZB8lVShlRoJJFMFaEQKXzIlD5SpL799+6H1/M+z3Ofc99nr73PPmv9fu/vTe85Z+197X2ue5+917rWveRWCwL3lrSopGUkLStpufjnvyTdJulmSX+X9M/45/ZpHb+fpAdIerCkh0i6v6RbJF0n6QpJl0i6VNKfJd1UC2hD78e9hg5AT/vPuD1O0uqS1pT0DEnLS1pEEkSQ0iCOv0j6g6QzJZ0m6WxJl0v6d0rH/uzuEXAC6B7TVE98tKR1JG0oaW1JS0kqZfz+E1cJZ0g6XtJJcbXA/+9WMAKlTKCCIcratKdI2kzSJpJWMPh177KzrAiOCe3+liSIgU8Pt8IQcAIobEAkLS1pq/gHAqjBrpV0tKQvRzLwlUEho+oEUMZAsOG2aVhGv17Ss3v2S98WwYvD/sVXAtEdIumqtjf79d0i4ATQLZ5tn8ZG3hvCzvp2khZve3PPr2cz8ahw4rB/XBX0vDv9bL4TQJ5xe7Kk3eMy/755mlCU15MlfTScaJxQVKsG0BgnANtBXkXSu+KmXurjOtuedePtLEnvlvSDbh7nTxmFgBPAKIS6+fcnhse8X9IWBR3dddOzNE/5kaT3hCPP09M83p86hYATQNq58HBJ7wuBMztKWiitq+qezkkBm4V7Srq6ut4V0iEngHQDwcbex2N0Xjov9T/5Bkl7SPpC/V2176ETQPeYE7BzoKT1u3/0oJ94oqSdwnHpeYNGoePOOwF0ByhY7ippr7CjTWKNW/cIEE3IJuF+4dPKg4k6wNcJoAMQw/KUOH2+V5/XzeP8KSMQ4JTgtR5INPk8cQKYHMOXx+9TMvHc7BAgI5F9lu/buazPkxPA+GN6H0n7Stp5/Ef4nRMiwGcAx4UfnvA5g73dCWC8oV8s5N9/wzf6xgMvwV1HBD2C10XRkwSPr/eRTgDtx5Zd/mOj6k77u/2OVAicExOqECpxa4iAE0BDoOJlbPLxa0OAj1t5CLAvgHbCKeU1rcwWOQE0H5dXx3x2j+hrjlmOK9E93Nw3B5tB7wTQDKc3h4i+g5pd6lcVgACpxmgrfLWAthTdBCeA0cNDcM8+oy/zKwpDgBOCHTyEeO5RcQKYG5+3RcGKwua2N6chApDA9kFA9UsNrx/cZU4Asw/5LvGcf3CTosIOo7rkyUQzDKwTwMyzfetQYOPQSl4EtPr/GhJpyKrjD0U92Ci7Nf4hoAlNwoUD4T1I0sNiBiN/8981CJewEthS0jcrGdPOuuEEsCCUL4g7yH2U6uLl/n0s1IG6zgWSLpN0fUii+VfLWUNFIY47USlGwuypIf7h6UHHb+VIEi0fl/1yNgZfFERXf5y9JQU1wAngnoOxUjxDpjRWH+yOWJ3n25J+Iul3Bvr7rBRWlARRvjSSQl/I8sZYVMVTiuPsdgK4+zUnvPfUWE+v5Jef5SxSWWQffjeoCv9v5sY+ShIJUWTnUaKs9DlFjcO1JF2TGbci3Jc+WFYg8R2MIm3J6bx8v3Ou/bm4zLfCpo2fJ8Wjt20L/0yA6BFsoWjqoM0JYN7wH1BwVt+VMQ6BQhp/68lspcIwgTjEUCxZaJs5FeB0YNDmBCC9StLXCpwFbNx9RNKngybePwpsX5MmsV/wxrAv8c7QDz6xSjMyCClXNlgbOgE8XtKvQrBPSZt+7NYTdvzBeHxXw+R8aKyHgHZCSbkUt4QTn9Xi5mkNOLfuw9AJ4KeS1muNWrobyGJDQvy36VxkfTKnLJ+Jm3BZGzKf87NDIZJnBoLimHBwNmQCeGvYqPpEISPO5HtvlBEncKdmI7AIme8PSCrl+BBlp91qBn22vg2VAJ4Qjq4QkCACLrddFGsEErgzJFsjnmpQNSm3QbrPCbENv8jdEGv/QyUASk+VcORHAA8bUX3Z3e96fnJa8MWYv9/1s9s+j88u9gOQHh+MDZEAtolBNLkHmVqBLIPd5mn9U08htyEuSlsGY0MjAHb7L5RE9FouY5f/v+MvX642lOiXBCxWAzlPCfj1Z6Py4hIBStGmoRHA3iET7h0pgGz4TDLwXhlDeBveMqjLNggv4JFhM/QBGXt9tKRXZPRv6npIBLCcpPNDcA1ZbjnsZkkvi0k7Ofz3xee6kSBJRc5lHA2flMu5pd8hEQA6/ltYgjufL/Lv+XX7eSb/fXNLnP73Mp7SkCvw7L6BNk57h0IApK+emylTjTP+l8Rko3HGaKj3bCSJ5XiuPQFWa9+pHfyhEACx/sT8Wxupu/g93NpxJf5Q8WHscsxTQsRXrQTHWbuRA1hrTAk0QRmHlF9rQ1S0lGhD67535S+nNuOLa68vMAQCQBGWKrLW9ilJ1BNwmxwB8gfIKrS2X8Y8AWu/Zv5qJwDO+/8YBS/NQI2KPWu74ERnkLMP8LNMLyMqRyQMVWm1EwAJNtbRdijwEudOjL9bdwiQuv1rSYQPWxrSa8idVWk1EwDn/VSKXcp45IhoO8zY51DcoTJkre+PGAvKyBQerc5qJgAUa48xHrGjYnVaY7eDcsfRHMeqlkbq+IGWDq181UwAx8fgGysskZxeIYhiXmXlcKB+HisJWW/LTwE+PaiJUJ3VSgBs/v3JOOzXj/zsXo8cNRsJJiOUvCqrlQB2ClVtPmk4UlTjIYusbfUdwyZW5YqYDl7G5Q179SFJ7zH0Z+KqVgLg2MZyycY3KUU63OwQ2Ny41h8kT4m0qqxGAlgiqOxcbhj5d6ak1auaFf3oDHMXGTUroiese9lYa7EfCDVoZY0EYF3Zl7JY1qcNDYZ2EJeQsEPCkJUh5PJZK2cWfmokACYEE8PCiDMg14BfBzd7BFAYZmmOyKuF/VDSCy0cWfmojQAIGaVY5qJGAJKosr+RL3czMwKWJwKIt3LChLJTFVYbAVDDnjNbC6OqzDKSrrVw5j5mRQCyvyzUT3ygEUYUESFJqAqrjQDeHgJE9jMamSOivp+RO3czBwLIq29ihBCakvsY+UrupjYCODZkbm2cHLV5DqrPFTfCsQs3lpuBHPdahyJ3gdGMz6iJAOgLS0FCRVMb34IcN6L155YfAQRE2fuxCA++IkOCWTKEayKAxSVdaXT+j2Cl1Uoj2eBX9uDjgg7DhgZ9uiNuBF5n4Cu5i5oIYB1DKec3ZEhLTT4Zeu6AM/pPG/VhrVrqCNZEAG8Kx38HG00Azp2JAXArB4EnhU3Z3xk1p5ofgJoI4HPhO5CBSW3XhF//R4fEEJaCbuUgQKlxPgEXM2gSPzRvMfCT3EVNBEDRDYtiDj8NBT6em3xk3ME4CFhpQJwoieIlvbeaCIATAKSbUhv1BfdI7cSfPxYCH5e021h3trvpEkmUmuu91UIAC8eIPIt6chT3JAjIrTwEXm2kx3iTpEdKoupTr60WAuC7DykukkNSG+HG56R24s8fCwFSgy0kvBF+Yc4hA9drq4UAkIy22JX/t6QlJbER6FYeAsSCEBBk8UPAJwCfAr22WgjgaSE8k1puqY0EIJJPkIp2Kw8BpOBJznqIQdPWjAVgDFylc1ELAVDPnd351Mavy2M8/z81zGM/n/nMGJGym9qIOjwhtZPUz6+FAEjOsCjlXKUuXOpJZvz8i4126DeTRBZir60WArASiBxEyehez+h5m4AWOoFVVICqhQC2kUQNt9R2elj28e3nVi4Cp0giVj+17RA2hD+f2knq59dCAIQAEwqc2k41ijZM3Y+an3+SJBLDUhu1Jw5K7ST1850A2iHsBNAOrxxXI9dFdebU5gSQGuEWz982hAEf0uL6cS89w2hyjds+v2+eJiTBWqnNCSA1wi2eT3ju4S2uH/fSc4MO/Srj3uz3mSBASjCpwanNCSA1wi2eb3UMSMIRSsBuZSLAJ+0fjZLCtgo1Ib5eJgzNW1XLHoBVINANMQbctQCazzHLK6kLQU7IIgZOkYRDGq7XVgsBrGyUoHNbzAJDFNStPAQeHgngfgZN40eHE4deWy0EsJSkP0my6E8VSSC9nrWzN94qKYwWsBfEnlCvzeKFsQDooZL+IolkkNSGGpBF3kHqftT4fBShUIZKbdSCRH4eifBeWy0EcJ+oB0c6aGqrYvc3NUiZnk90nkX1XrJCmWv83WurhQAYBOL0SQtObYeGAiTEHbiVh4CVMCynQcvWkBVaEwEcGb7JXmEwJz0WwADkMV2cJWnVMe9tcxufGWu3uaHUa2sigI+Fss27GwCNGAiiIL1f/hlgZekCPUiUmh5g4JTPDAqR9N5qIoDXhGXZV41G5FmSTjPy5W6aIUDZ7l80u3TiqyhCY1WFaOLGzvWAmghgJcNjmY8ERdh3JR0Zf3hbBN4fvsnf1/amMa8n2/DkMe8t6raaCOCBUQ/u/gYI+z6AAcgtXVhtAhMFSmWoKoRhayIA5otVJhjqwOQE/LnlJPXL0yDAWKAKbaEGzJg/roYTAIaiNgL4QgjOeH2aObbAU98u6QAjX+5mbgSoBkRVIAvjtGlTC0cWPmojAKvKMFOrDQvtOYt50HcfvzFM02b33yLYyGRMaiMAagOSDmrVL5KQfmsyUu5kNgQsN39pA1oDF9YyHFYvihVe9OciI1lo+vTFEIK8vVXn3M+MCFh+9vHjQsIRuQBVWG0EwKBwPmsVpHGrJDIRr69iNvSvExQAoTyXRfAP6HwmJJ3t2D+YZm9xjQTwfEk/NByk90ray9Cfu7obAc79Of+3shcaz63k/aqRAIgD4KiGcF0LQyXoCZL4280OgYfFX/9HGLlEBIYVB6u+aqxGAmBwyNijcouV7R0Khu5h5cz93InAhyXtaYhFVcd/U7jVSgAbBPnu4w0nB78KKwbSudTQ55BdEYiD+u/ChiC8WNL3Df2ZuKqVANCEuzzq95kAKemocCS4iZWzgfv5lnEwztUx+u+fteFeKwEwTpanAVPzAgKACNzSIWAlAT9/D4j4JPKzOquZABBtJELM0qhNT2CKbwimQR3tx/NjMk4aDws+lbyPFSRRGr46q5kAGCzyw8kTtzSKRVA0wq17BCj/Zi3HxpEyx39VWu0EgEQYu7fWRrViItTcukPAqv7j9Ba/IJQb/1F33SjrSbUTAGrBxG0TvmlpnApQo570ZLfJESDnAgUmq4i/qRaj+0Ch0WpCf6cPRe0EQH/fKukTk8/B1k8gJwESuK71nX7D/AgsFrX+n5gBlteG3f+vZPBr5nIIBMCvBmIRS5ihercjlo4bBfmw2zP4rsElhV6I51g/Q2eI6SDzr+qxGwIB5FwF4PtrIWQVwdJql5GJXk7m5mEZN1QRlvlSor4V89ihEAARY6wC0HLLYQfGT5Ecvvvqk882Pt9yGHOFX//qq0APhQCYROTtfz7HbIo+95O0a0b/fXK9T2astgwEcHifABu3rUMiAPpK5ZicMl4HB+2At4w7WAO5L+cvPxCfIuk5A8HaTDqrFDyfV8CZLsEsrEaqX162HPSF4jc3+yU5jQrDp+ZsgKXvIa0ApnC1TiSZaTzJKmOZ+X+Wg12wr4eHcFvGhdLrOY3KUtvkbIC17yESAKmk50mikEhOO0fS5lHDMGc7cvsmzv6I8OcpmRvy15jSfWXmdpi6HyIBAPAukvY1RXpmZzcG9aLtQrTZMQW0JUcTNovCqg/J4Xyaz2rq/bXBcqgEQAWZEwsq8cwxIYpCVclNzTERCfCBgEvZED1J0nptXpxarh0qATB+y0s6u4BPgam5xGcJasbsQtdsVFamsAZp0yUY5d5JHSd0e3A2ZAJgsN8YpZ5LGXiiBREyofLwTaU0qqN2kMv/oVDAlaV2SfNukEv/qTEtaSA6mmetH8P390tb35X2hiui4CVhxAhS9NmYY+xz8PKjqluScfLARuxgzQlA4giKAKFlC5wFpBN/IAQvHdvDXALmFnoM1E0gnbc0uywGhbERO1hzApg39GvElFOCUUo09gfQpftGDzYKEWR9ZWjn7gUc7c02lrdJWjdqDJQ43mZtcgK4G+rS9gNmmgR/iTUPCFiBFEoyzvFR7SGQhhz+ko1ITOo6Dt6cAO45BXLHobeZkAQSoT/I5wGqR9bpxhylPjmcpGwcv6Of1qbxGa/dP8aBZGxCOa6dAO45FkxqNARfVs4QNWrJn8I59s9CEstPJP1SEv/dtYY9S/tlJK0ZxFbRySNh5jGNWlfORUi2b5qBLMtBYFpLnAAWHBoUhH6cQU24y0nCxhZVcy+IFXQulnRVrGJ8cyQHlG7+Nd/LQE1FwqMfHAuq8HIvF1YZSHGhqcjf1OPrq6EQTTLYUIKtGo2TE8DMMD0yRAn+NMaGNwKyRxfxqcDRIn/ISORv5gHReYio1mjUEmDTz/UZfQXQeH4vFZfUVP516y8CqPugKUipODcngFZzgNgACkNYy4q3aqRfPCsC/vKPmBz+CTD67SF9GGVaNOLc+oMAsf1sVrIh6jYLAk4AzaYGkuLHxSIRze7wq3IicIakl0uiVqPbHAg4ATSfHuyAEzvOTrJbuQhwFEoI8t/KbWI5LXMCaDcW7JRT82/rdrf51UYIECpNNZ+uYyCMmm/vxglgPMxJcCFJx60cBN4n6YPlNKcfLXECGG+ciBRE4jtXoZHxWl3vXddEnYEclaB7jaoTQLvhWzpKepPw0rcw2HY97d/VbPhRyPNzQX/gz/1rfp4WOwGMxh2MCCTZOcTZbxCELe47+ha/IiMChDcju/7JEP2H1p91klTGrrd37QQwO2Yo1fJLj04fWW9u/UOAXAgk1kif9hoMM4yfE8CCoCwe9PjeFs6Q3xB+RVALcus/AtfHupCQAXJrbhEBJ4C7pwLf9BTvRCyCjEC3+hAgE5B9AiTJL62ve+175AQwL8d9z3i2zzm/W/0IsE/wJUkfHXqo8JAJgJTfd8Zv/IXrn/PewxkQIGAIabAPR72EwYE0RAJ4UNzR301SCSWpBjfpCuwwIinIwfFpUFs9hjnhHhIBIPf1uoDG+8OG0JIFTkJvUn4EEF0lovDzFdRjaITmUAhgncjwT22Eil80dAQoGceGMHEEVVvtBLCIpL3jL3/VA+mdS4LAlyW9I2opJnGQ+6E1EwBZYftIggTcHIFxESDPgNXA/4z7gJLvq5EAkPE6SNKLSgbe29Y7BE6QtJMkFJarsdoIgCCe/aK0dTWD5B0pBgECid4dy7RVkWNQCwGQlotQx4bFTBVvSM0I/ChGjPZeb7AGAkD+iWMb/9av+ZUrr2/EC7y573sDfSYASlWx3H9TeXMja4tYmhLhdkv8gzYef/4R/7CM5X9Pl82iMhB/iIrkD/kQBEpRKYiKQfx/hEoTT+F2NwKcFDAHwbR31lcCoBLtYbG+e+9An7DBVPLh1+dKSejesynF34hgUP6L6jf8Oy86lX8mNeYIGggQAITASotPLuTSKZpCzQT+92PDt/FDY5WhSX327f5fhQKtW0pCirxX1kcCeFX83h9Cxh4v8R9DsdLfhP2N04Pa7bnxZedoitp+JdlCsaYg9QSpFLx6lFEn2YqVRe2G3sB2oZzct/vU0T4RAG0le2v3PgHcsq38qp8aI9B44fll77u8NURNUZVnhQrG60laSxKaC7UawqSEE/fC+kIALD2/LmmjXqDavJEs16layxkzxUhZzrPEr9koQEqsBkSAuCph2n2uOjzTWB0tads+kHcfCIDvzO9UJMvFS06dehRsfx1LdNf8wo/qG5u5q0UygOBrKcH2O0mbxhLtozDI9u+lE8Bz4jfVYtkQ6sbxhWFiHy7piNInRDfdHfspzMcVA0abx5en72Rwg6TN4upubFBS3lgyATAJDo27zykxSPVsUkspJYYE1VmpnFT+3FXjUpqXqK/7BrfFakV8whZnpRIAopyc8ZfavtkGkjN4atN9KlYU9hJV3Ux54g/4POC8nY3EvsUiMC/eEudFN4h09JQSX7D39LDEEzv1X4vVgpCidkuHwBMjEbDJ1jdFp+LKl5VGAB/r2TEfZ/RkHhINNigpqXTvd+MnI9mOwhO/rAQh9cWQHUOOrggriQAOjINZBDAjGsGmHjEJfNeVFpDTB/y6bCOfB1RrJj6EIKQ+GJ+I5BFktxIIgDZ8NhbiyA7IiAYQmPORWGmmizDb0vvbp/YRX7BVCH/mE7IPRIAaMcVnsqYVl0AAn5H0xsJnGhF6H4pa8v6LX/ZgEZJMSTeIoPRPA374KD2XzXITAJVcYcFSjYw69iX2D9pwfy+1kd6uGREgeYnTJIq+IAVfqlGuLFtGa04COCDq85c6MGQbMnm8llypI9SsXWQusnrj1KBU4wdmlxyNy0UAyCrtlaPDDXySecdgEJvvVg8C68bYkqcX2qV3xf0l0+blIIC3Ro1+0442cEbE1ntjdRjf4GsAWA8vIYAIme8PRHGT0rqwc6hI/UnLRlkTAKIJBMxY+x2F6YnxCPL8URf6v1eBwAqSOHZev7DecCKA3gV5IyZm+SKyBPtBYczLr/4ecUWS9TjGZLTdyfwIMPfZJKQwaEnFYQkff0Egp5MthsuKADiXJe+dirylGKm4HBf9tpQGeTuyILBylJfj71Ls2qARsWYIcLo0dYMsCIB4bdhsldSdafH8g+NGHysAN0eAFQA78VnP5KcNw3lRRQmpsWSWmgB4PuooL03Wg3YP5ix/x5hm3O5Ov3oICLxaErEppehNIhyzSUrgUxMA568cb5Rgv49CE77kL2E0ym0Dx4TfLCicmBMLStonsZQE8GJJ303S6vYPpZILJxDXt7/V7xggAo+IJPC8QvqOdiKyeJ1bKgJACvqMkB+/aOctbv9A4q1JGf1X+1v9jgEjQC0EsvZKCFXnhwup9cu7Ho8UBEBW1kmSnt11Y8d4HgkhfIa4OQLjIkDg0N7j3tzhfcSqPL+jYi93NSsFAZAnz9l6TuNMnwxDaga6OQKTIsAqgKzV3FJkxCwQRt+ZdU0AMBTBPl0/t02HWeq/xjKaqk3j/NreIoDENwIwpBvnMn7YiF5khd2JdfmiUtyBGml8/+cyoqhQEz42VwPcb9UIcCT3jcwkQEnylUIcSyfxAV0SAPLXRNblMn75GSB/+XONwDD8Uo6eWP2cKwHUhLbvAu6uCABQqHSTyyinRRIF57dujkBqBFhl8jnAhncuQyb9uEmdd0EAhPoSXJNTfum1sQDHpHj4/Y5AUwRY7bLqzWWUg+dTYKLisV0QALLYORVO0RcgtdPNEbBGgPx9lK1yGWHLE+lpTkoAz4zlrCd9zrgAfrxndQTG7affVy4C+0jaNVPzOBWg7Povx/U/yYvLvThefVznE95Hoc1XTvgMv90R6AIB9p7YF8hhp4ejd36Ix9KzmIQAdoh6/jk6TbFNKgf/I4dz9+kITEOA7MFTJT01EzJ8BvA50NrGJQBi/JHPylG2m7joNUKwzyWte+s3OALpEKBmIStiSpZZG5Wo8d+6PN24BIBw4U7WvYzLHLIMJz7+yNB2d1k/AhzNkQE77ns1CUJjSYuP01Dkvfj1pyabtZHYQ4KPmyNQKgIoS5PDb21UrFoxxMNc1MbxOASAqi9BN9aGTj+5BgT9uDkCpSLAO/VDSTm0BNiM3KINMG0JYFVJZ2ZY4vBtQz405bjdHIHSEXiMpHNCfArCIpbGSQD7Y7yjjawtAfDtvWGjJ3d7ESsOkjDcHIG+IMAvcY45e0Kbd7QNAawWVX6sB4BPDsQa3RyBviFAvgBSdNZGbE6jVUAbAkDdF20yS7s6nq1eY+nUfTkCHSFAHQw2zK3rYaAf2OhdbUoAaPpTSKPp9R3hd+eGhmf4dYWmPycHAjmShtgLICjp3FEdbvpC8y3TandxlOMG/46y0AYNrvNLHIHSEeBUgBMsS+OdHXla14QASPOlRJFl7jMVe9j1v8ASMfflCCRCYPmwJKfsvGUNQgRyHi+JtOFZrQkBkHG3WyJgZnvsxyS909inu3MEUiKwV9eCng0aS6YiqsZjE8CDJV1mfJ7Jxh9xzZ1onjUAyS9xBCwQeGCM0lvSwln0cUMQLXncXO/SqBUAWUbIIVva64K60JctHbovR8AIgW0lHWLka8oNWbuzyuOPIgCimSzLJiMtxu6lh/sazxJ3Z4IAdQXYC0DKy8p4p2Z9h+ciAOqTn2bVyugnWQ004364O0dgNgSolH2MMTzPlUQuzQI2FwEcGnb/tzZsKDUFnjGusolhO92VIzApAtTNJLLWymaNpp2NAFD6vVLSg6xaGIqKvKSgasKG3XZXA0SAfBpLTYubJZGgtIBgyGwEQGmtrxoOjP/6G4LtropA4OxQxObphi2ZUTZsNgKgEum6ho3zbD9DsN1VEQiQJESykJWhWbhAxe6ZCGDpqLdnFflHnAHn/iiauDkCQ0GA0mKo93BOb2F3hFX9stMjA2ciAKL+iP6zMvzta+XM/TgCBSGwi/Hc3336uz0TAZD1ZyVvzOYEDIjSr5sjMDQEUBCm2i8RtxZGDAI5NnfZdAIg8Ycl+agAoa4aS1TUdl09zJ/jCPQQgS9Ier1Ruwmw4xP/iil/0190pL6R/LYyUiR/bOXM/TgCBSKwtqSfGbbrTaGex6dnI4Cfz7RTmKhxt4TKQo8KddX4DHBzBIaKwP0lUdjDKuYGsrnrhG/+FQDfI1dJup/RSCCVhI65myMwdATOk7SCEQiU01sqVPS+Dn/zE8DLQ9LAUUaNwM3JktYx9OeuHIFSEThF0lqGjds0JCQdOZ0AiPwjAtDK+Pa3lkmy6pv7cQTaIMCynL0AK7tr831qBUDQD8cRj7ZqQQyCQCrJzREYOgJ/iPJdVjiQ58NpwB1TBEC+MLn/lvbPUNJ4CUk3Wjp1X45AYQgsEhPvrPbeprrP/tv5UwTw9hCMsF8GYDYLG4HfzuDXXToCpSCweSbpe478D5oiAEoaU3bb2mZMULBuhPtzBDIi8AtJz8zg/3uSNoYAkCnim4Az+Ry2fjgNIPvQzREYGgIvCsJOfTq3AAADYElEQVQg38/UaWIPloAA0A5nEyKX4Zu8aFcBzjUC7jcHAsT/o4OxXA7n0efyEAC5+EgG5bTDMxVRzNln9z1sBHJU25qO+GsgACSDty9gLEhBJl3RzRGoHQEK35Qw1w+GANiIe1YhiFODYGdJlAZzcwRqQ4Cjvk9JovZFCXYaBHB5FAwsoUG0gZzlHTNIkpfSf29HnQisETbaP2uotdEExashgL8ZChI0adTUNeiYAxhVgmmjmyPQNwQeEVJ915OEICfa/FY6G01xupUGkR1kHYXUtIFc9/coUsJpAbXO/POgDXp+rTUC1ADkxUd/D7Wrkt+t2yEAXigECt0cAUdgWAjcmQtwq3Hd8mFB7L11BMpF4M4VAMtqxEDcHAFHYFgI3AQBWKciDgti760jUC4CF0EAVCqlYqmbI+AIDAuBIyGAXSXtM6x+e28dAUcgFAt9GwSwSgy+cUQcAUdgWAisDAHw5/exPt+wuu+9dQSGiwDv/JOnIpPeLWmv4WLhPXcEBofAniFI6aNTBLBYjLajSIGbI+AI1I0A0bXLUJBk/tjkA2ImXt1d9945Ao4A5f/Iur1HcsKiUarbg4J8gjgC9SJwUxAAeoKka6cTAP9N1hI5+W6OgCNQJwI7RBGgO3s3U3ricZI2rLPv3itHYNAIHC8JIdK7bCYCQB34zMJEQgY9at55R6ADBFD+fkZY5V89igD4d3TKfyLJTwU6QN4f4QhkRoAqXAiTnDa9HXMplLxC0hEhPoC6gW6OgCPQTwTuCCXAqMB19EzNHyVRtEWoG3CYpPv2s+/eakdg0Ajw8m8dony/PhsKowiA+zaWhIY5UkdujoAj0A8ECPbh5T9yruY2IQDuX00SxTvQOXNzBByBshFA42PLUO/zrFHNbEoAPOdhkg6WtNWoh/q/OwKOQDYE+GR/c1Ml7TYEMNUjYgT2DRuET8nWRXfsCDgC0xG4OIb3EsfT2MYhAB7OyQA1BXcL3xgrNfbmFzoCjkDXCFwY6nrsFyTIvyLp9rYPH5cA5veztqRtQvDQRiGMePG2DfDrHQFHoDUC18Wy4odIOlnSf1o/Id7QBQFM+eaoEHWh1WPEEZ8IS8a9A/7t3uM20u9zBAaIAEd4BPDcGIr3EsV3aQjRPz0G81wwzq/9TBj+P+my1vmq9vrtAAAAAElFTkSuQmCC;" parent="1" vertex="1">
                    <mxGeometry x="120" y="-1655" width="40" height="40" as="geometry"/>
                </mxCell>
                <mxCell id="ZdKDWVDCSNFof4G56TFV-28" value="&lt;span style=&quot;font-family: Helvetica; font-size: 26px; font-style: normal; font-variant-ligatures: normal; font-variant-caps: normal; font-weight: 400; letter-spacing: normal; orphans: 2; text-align: left; text-indent: 0px; text-transform: none; widows: 2; word-spacing: 0px; -webkit-text-stroke-width: 0px; white-space: normal; background-color: rgb(251, 251, 251); text-decoration-thickness: initial; text-decoration-style: initial; text-decoration-color: initial; float: none; display: inline !important;&quot;&gt;User Profile&lt;/span&gt;" style="text;html=1;fontColor=default;whiteSpace=wrap;fillColor=none;" parent="1" vertex="1">
                    <mxGeometry x="180" y="-1655" width="220" height="40" as="geometry"/>
                </mxCell>
                <mxCell id="ZdKDWVDCSNFof4G56TFV-34" value="" style="group" parent="1" vertex="1" connectable="0">
                    <mxGeometry x="640" y="-1425" width="473" height="120" as="geometry"/>
                </mxCell>
                <mxCell id="ZdKDWVDCSNFof4G56TFV-29" value="" style="group" parent="ZdKDWVDCSNFof4G56TFV-34" vertex="1" connectable="0">
                    <mxGeometry width="473" height="70" as="geometry"/>
                </mxCell>
                <mxCell id="ZdKDWVDCSNFof4G56TFV-30" value="UserNamehere" style="html=1;shadow=0;dashed=0;shape=mxgraph.bootstrap.rrect;rSize=5;strokeColor=#dddddd;;align=left;spacingLeft=10;fontSize=16;whiteSpace=wrap;rounded=0;" parent="ZdKDWVDCSNFof4G56TFV-29" vertex="1">
                    <mxGeometry y="30" width="340" height="40" as="geometry"/>
                </mxCell>
                <mxCell id="ZdKDWVDCSNFof4G56TFV-31" value="Name For Strangers" style="html=1;shadow=0;dashed=0;shape=mxgraph.bootstrap.rect;strokeColor=none;fillColor=none;fontColor=#999999;align=left;spacingLeft=5;whiteSpace=wrap;rounded=0;" parent="ZdKDWVDCSNFof4G56TFV-29" vertex="1">
                    <mxGeometry width="200" height="20" as="geometry"/>
                </mxCell>
                <mxCell id="ZdKDWVDCSNFof4G56TFV-32" value="Update" style="html=1;shadow=0;dashed=0;shape=mxgraph.bootstrap.rrect;rSize=5;fontSize=16;fillColor=#3D8BCD;strokeColor=none;fontColor=#ffffff;whiteSpace=wrap;" parent="ZdKDWVDCSNFof4G56TFV-29" vertex="1">
                    <mxGeometry x="353" y="30" width="120" height="40" as="geometry"/>
                </mxCell>
                <mxCell id="ZdKDWVDCSNFof4G56TFV-33" value="Generate Name" style="html=1;shadow=0;dashed=0;shape=mxgraph.bootstrap.rrect;align=center;rSize=5;strokeColor=none;fillColor=light-dark(#00994D,#EC7671);fontColor=#ffffff;fontSize=16;whiteSpace=wrap;rounded=0;" parent="ZdKDWVDCSNFof4G56TFV-34" vertex="1">
                    <mxGeometry y="80" width="190" height="40" as="geometry"/>
                </mxCell>
                <mxCell id="ZdKDWVDCSNFof4G56TFV-35" value="Generate Name" style="html=1;shadow=0;dashed=0;shape=mxgraph.bootstrap.rrect;align=center;rSize=5;strokeColor=none;fillColor=light-dark(#00994D,#EC7671);fontColor=#ffffff;fontSize=16;whiteSpace=wrap;rounded=0;" parent="1" vertex="1">
                    <mxGeometry x="640" y="-1505" width="190" height="40" as="geometry"/>
                </mxCell>
                <mxCell id="ZdKDWVDCSNFof4G56TFV-37" value="" style="group" parent="1" vertex="1" connectable="0">
                    <mxGeometry x="120" y="-1275" width="413" height="70" as="geometry"/>
                </mxCell>
                <mxCell id="ZdKDWVDCSNFof4G56TFV-38" value="Password" style="html=1;shadow=0;dashed=0;shape=mxgraph.bootstrap.rrect;rSize=5;strokeColor=#dddddd;;align=left;spacingLeft=10;fontSize=16;whiteSpace=wrap;rounded=0;" parent="ZdKDWVDCSNFof4G56TFV-37" vertex="1">
                    <mxGeometry y="30" width="410" height="40" as="geometry"/>
                </mxCell>
                <mxCell id="ZdKDWVDCSNFof4G56TFV-39" value="Current Password" style="html=1;shadow=0;dashed=0;shape=mxgraph.bootstrap.rect;strokeColor=none;fillColor=none;fontColor=#999999;align=left;spacingLeft=5;whiteSpace=wrap;rounded=0;" parent="ZdKDWVDCSNFof4G56TFV-37" vertex="1">
                    <mxGeometry width="218.29" height="20" as="geometry"/>
                </mxCell>
                <mxCell id="ZdKDWVDCSNFof4G56TFV-41" value="" style="group" parent="1" vertex="1" connectable="0">
                    <mxGeometry x="120" y="-1195" width="413" height="70" as="geometry"/>
                </mxCell>
                <mxCell id="ZdKDWVDCSNFof4G56TFV-42" value="NewPassword" style="html=1;shadow=0;dashed=0;shape=mxgraph.bootstrap.rrect;rSize=5;strokeColor=#dddddd;;align=left;spacingLeft=10;fontSize=16;whiteSpace=wrap;rounded=0;" parent="ZdKDWVDCSNFof4G56TFV-41" vertex="1">
                    <mxGeometry y="30" width="410" height="40" as="geometry"/>
                </mxCell>
                <mxCell id="ZdKDWVDCSNFof4G56TFV-43" value="New Password" style="html=1;shadow=0;dashed=0;shape=mxgraph.bootstrap.rect;strokeColor=none;fillColor=none;fontColor=#999999;align=left;spacingLeft=5;whiteSpace=wrap;rounded=0;" parent="ZdKDWVDCSNFof4G56TFV-41" vertex="1">
                    <mxGeometry width="218.29" height="20" as="geometry"/>
                </mxCell>
                <mxCell id="ZdKDWVDCSNFof4G56TFV-44" value="Update" style="html=1;shadow=0;dashed=0;shape=mxgraph.bootstrap.rrect;rSize=5;fontSize=16;fillColor=#3D8BCD;strokeColor=none;fontColor=#ffffff;whiteSpace=wrap;" parent="1" vertex="1">
                    <mxGeometry x="430.0019873150105" y="-1085" width="104.77801268498942" height="40" as="geometry"/>
                </mxCell>
                <mxCell id="ZdKDWVDCSNFof4G56TFV-45" value="" style="group" parent="1" vertex="1" connectable="0">
                    <mxGeometry x="120" y="-1115" width="413" height="70" as="geometry"/>
                </mxCell>
                <mxCell id="ZdKDWVDCSNFof4G56TFV-46" value="NewPassword" style="html=1;shadow=0;dashed=0;shape=mxgraph.bootstrap.rrect;rSize=5;strokeColor=#dddddd;;align=left;spacingLeft=10;fontSize=16;whiteSpace=wrap;rounded=0;" parent="ZdKDWVDCSNFof4G56TFV-45" vertex="1">
                    <mxGeometry y="30" width="300" height="40" as="geometry"/>
                </mxCell>
                <mxCell id="ZdKDWVDCSNFof4G56TFV-47" value="Repeat New Password" style="html=1;shadow=0;dashed=0;shape=mxgraph.bootstrap.rect;strokeColor=none;fillColor=none;fontColor=#999999;align=left;spacingLeft=5;whiteSpace=wrap;rounded=0;" parent="ZdKDWVDCSNFof4G56TFV-45" vertex="1">
                    <mxGeometry width="218.29" height="20" as="geometry"/>
                </mxCell>
            </root>
        </mxGraphModel>
    </diagram>
</mxfile>